<svg xmlns="http://www.w3.org/2000/svg" width="600" height="400" viewBox="0 0 600 400" fill="none">
  <!-- Background -->
  <rect width="600" height="400" rx="12" fill="#F8F9FB"/>
  
  <!-- App header -->
  <rect width="600" height="40" rx="12" fill="#FFFFFF"/>
  <circle cx="24" cy="20" r="6" fill="#32C8CD"/>
  <circle cx="48" cy="20" r="6" fill="#EBEBEB"/>
  <circle cx="72" cy="20" r="6" fill="#EBEBEB"/>
  <rect x="100" y="12" width="160" height="16" rx="4" fill="#F0F0F0"/>
  <rect x="520" y="12" width="60" height="16" rx="4" fill="#F0F0F0"/>
  
  <!-- Left sidebar -->
  <rect y="40" width="60" height="360" fill="#FFFFFF"/>
  <rect x="16" y="60" width="28" height="28" rx="6" fill="#F0F0F0"/>
  <rect x="16" y="108" width="28" height="28" rx="6" fill="#F0F0F0"/>
  <rect x="16" y="156" width="28" height="28" rx="6" fill="#F0F0F0"/>
  <rect x="16" y="204" width="28" height="28" rx="6" fill="#F0F0F0"/>
  <rect x="16" y="252" width="28" height="28" rx="6" fill="#F0F0F0"/>
  
  <!-- Main content area -->
  <rect x="80" y="60" width="240" height="160" rx="8" fill="#FFFFFF"/>
  <rect x="96" y="80" width="120" height="16" rx="4" fill="#32C8CD" fillOpacity="0.2"/>
  <rect x="96" y="104" width="208" height="8" rx="4" fill="#EBEBEB"/>
  <rect x="96" y="120" width="180" height="8" rx="4" fill="#EBEBEB"/>
  <rect x="96" y="136" width="196" height="8" rx="4" fill="#EBEBEB"/>
  <rect x="96" y="168" width="80" height="32" rx="6" fill="#2A3FFB"/>
  <rect x="184" y="168" width="80" height="32" rx="6" fill="#F0F0F0"/>
  
  <!-- Supply chain visualization -->
  <rect x="80" y="240" width="500" height="140" rx="8" fill="#FFFFFF"/>
  
  <!-- Chain nodes -->
  <circle cx="140" cy="310" r="24" fill="#32C8CD" fillOpacity="0.2"/>
  <rect x="128" y="304" width="24" height="12" rx="2" fill="#32C8CD"/>
  
  <circle cx="240" cy="310" r="24" fill="#2A3FFB" fillOpacity="0.2"/>
  <rect x="228" y="304" width="24" height="12" rx="2" fill="#2A3FFB"/>
  
  <circle cx="340" cy="310" r="24" fill="#9747FF" fillOpacity="0.2"/>
  <rect x="328" y="304" width="24" height="12" rx="2" fill="#9747FF"/>
  
  <circle cx="440" cy="310" r="24" fill="#32C8CD" fillOpacity="0.2"/>
  <rect x="428" y="304" width="24" height="12" rx="2" fill="#32C8CD"/>
  
  <circle cx="540" cy="310" r="24" fill="#2A3FFB" fillOpacity="0.2"/>
  <rect x="528" y="304" width="24" height="12" rx="2" fill="#2A3FFB"/>
  
  <!-- Connection lines -->
  <line x1="164" y1="310" x2="216" y2="310" stroke="#EBEBEB" strokeWidth="2" strokeDasharray="4 4"/>
  <line x1="264" y1="310" x2="316" y2="310" stroke="#EBEBEB" strokeWidth="2" strokeDasharray="4 4"/>
  <line x1="364" y1="310" x2="416" y2="310" stroke="#EBEBEB" strokeWidth="2" strokeDasharray="4 4"/>
  <line x1="464" y1="310" x2="516" y2="310" stroke="#EBEBEB" strokeWidth="2" strokeDasharray="4 4"/>
  
  <!-- Right panel/widgets -->
  <rect x="340" y="60" width="240" height="160" rx="8" fill="#FFFFFF"/>
  <rect x="356" y="80" width="100" height="16" rx="4" fill="#9747FF" fillOpacity="0.2"/>
  
  <!-- Chart visualization -->
  <rect x="356" y="104" width="208" height="96" rx="4" fill="#F8F9FB"/>
  <path d="M356 180 L380 150 L404 160 L428 130 L452 140 L476 120 L500 110 L524 140 L548 130 L564 150" stroke="#32C8CD" strokeWidth="2" fill="none"/>
  <path d="M356 160 L380 170 L404 150 L428 160 L452 180 L476 170 L500 150 L524 170 L548 140 L564 160" stroke="#9747FF" strokeWidth="2" fill="none"/>
  
  <!-- OramaChain logo -->
  <circle cx="500" cy="180" r="16" fill="#2A3FFB" fillOpacity="0.2"/>
  <text x="500" y="185" font-family="Arial" font-size="12" fill="#2A3FFB" text-anchor="middle">OC</text>
</svg> 