<svg xmlns="http://www.w3.org/2000/svg" viewBox="0 0 32 32">
  <path fill="#E535AB" d="M16,2.5L28.2,9.7v12.6L16,29.5L3.8,22.3V9.7L16,2.5z M16,0.8c-0.5,0-1,0.1-1.4,0.4L1.4,8.5C0.5,9,0,10,0,11v10c0,1.1,0.6,2,1.5,2.5l13.1,7.3c0.4,0.2,0.9,0.4,1.4,0.4c0.5,0,1-0.1,1.4-0.4l13.1-7.3c0.9-0.5,1.5-1.5,1.5-2.5V11c0-1.1-0.6-2-1.5-2.5L17.4,1.2C17,0.9,16.5,0.8,16,0.8z M16,10.8c0.7,0,1.3,0.6,1.3,1.3c0,0.5-0.2,0.8-0.6,1.1l2.3,6.3c0.2-0.1,0.4-0.1,0.6-0.1c0.4,0,0.8,0.2,1.1,0.5l5.1-2.8c0-0.1,0-0.2,0-0.3c0-0.7,0.6-1.3,1.3-1.3c0.7,0,1.3,0.6,1.3,1.3c0,0.7-0.6,1.3-1.3,1.3c-0.4,0-0.8-0.2-1-0.5l-5.1,2.8c0,0.1,0.1,0.3,0.1,0.4c0,0.7-0.6,1.3-1.3,1.3c-0.5,0-0.9-0.3-1.1-0.6l-2.3,0.8c0,0.1,0,0.2,0,0.2c0,0.7-0.6,1.3-1.3,1.3c-0.7,0-1.3-0.6-1.3-1.3c0-0.7,0.6-1.3,1.3-1.3c0.5,0,0.9,0.3,1.1,0.6l2.3-0.8c0-0.1,0-0.3,0-0.4c0-0.4,0.2-0.8,0.5-1.1l-2.3-6.3c-0.2,0.1-0.4,0.1-0.6,0.1c-0.7,0-1.3-0.6-1.3-1.3c0-0.7,0.6-1.3,1.3-1.3c0.7,0,1.3,0.6,1.3,1.3c0,0.5-0.2,0.8-0.6,1.1l2.3,6.3c0.3-0.1,0.6-0.2,0.9-0.2c0.2,0,0.4,0,0.6,0.1l2.3-6.3c-0.3-0.2-0.6-0.6-0.6-1.1c0-0.7,0.6-1.3,1.3-1.3z"/>
</svg> 