<svg xmlns="http://www.w3.org/2000/svg" viewBox="0 0 32 32">
  <path fill="#326CE5" d="M15.9.476a2.14 2.14 0 0 0-.823.218L5.219 5.127A2.106 2.106 0 0 0 4 7.067v10.14c0 .779.425 1.492 1.11 1.86l9.858 4.563a2.13 2.13 0 0 0 1.82.008l9.933-4.433a2.128 2.128 0 0 0 1.11-1.86V7.067c0-.77-.42-1.48-1.097-1.85L16.923.694a2.106 2.106 0 0 0-1.023-.218z"/>
  <path fill="#FFF" d="M16.002 4.542c-.384.027-.675.35-.675.733v.48c.003.413.11.818.31 1.174.066.13.154.252.227.38.145.27.26.553.345.844.038.14.07.283.08.43a4.665 4.665 0 0 1-.408 2.092c-.58 1.313-1.67 2.358-2.954 3.002-.417.206-.864.37-1.323.487-.16.044-.33.078-.494.105a7.562 7.562 0 0 1-.59.061 4.396 4.396 0 0 0-.734.104c-.327.064-.53.364-.465.693.066.33.417.547.745.484.11-.022.223-.026.335-.026.11-.001.22-.005.33-.02.307-.04.611-.111.902-.21.357-.125.703-.276 1.033-.456 1.58-.854 2.844-2.312 3.307-4.082.056-.195.112-.394.151-.596.03-.154.043-.313.052-.47.013-.16.02-.32.017-.48l.013.002v-.098a5.687 5.687 0 0 0-.072-.805 5.897 5.897 0 0 0-.196-.802c-.37-.133-.114-.24-.138-.38a5.644 5.644 0 0 1-.124-.51 2.546 2.546 0 0 1-.033-.618c.013-.147.05-.29.11-.422a.46.46 0 0 0 .025-.177v-.457c0-.366-.283-.733-.692-.733-.02 0-.034-.005-.052-.005zm-3.086.311a.37.37 0 0 0-.08.005.865.865 0 0 0-.415.163c-.267.19-.55.358-.838.514-.69.368-1.37.759-1.986 1.22-.11.085-.21.184-.332.248a.896.896 0 0 0-.33.32 2.192 2.192 0 0 0-.263.621 5.611 5.611 0 0 0-.133.552c-.1.59.025 1.214.222 1.77.04.108.081.216.127.32a3.1 3.1 0 0 0 .265.516c.17.272.38.516.63.72.24.195.497.364.77.51.142.076.294.177.459.207a5.943 5.943 0 0 0 .587.145c.235.047.472.077.71.94.062.006.123.017.185.02.35.013.698-.022 1.042-.08a6.051 6.051 0 0 0 .603-.145c.345-.094.683-.21 1.01-.354a4.617 4.617 0 0 0 1.953-1.524c.234-.32.429-.673.56-1.048a3.19 3.19 0 0 0 .152-.782c.009-.116-.008-.234-.023-.35a2.177 2.177 0 0 0-.134-.454 1.459 1.459 0 0 0-.47-.623c-.25-.184-.499-.37-.749-.553a16.294 16.294 0 0 1-1.293-1.065 2.737 2.737 0 0 0-.299-.252c-.206-.15-.43-.286-.675-.364a.773.773 0 0 0-.318-.034zm7.53.592c-.33.015-.66.06-.98.14a1.743 1.743 0 0 0-.553.295 3.715 3.715 0 0 0-.5.42c-.258.253-.522.5-.78.752-.081.08-.177.17-.245.271a2.152 2.152 0 0 0-.311.688 5.665 5.665 0 0 0-.137.956 4.15 4.15 0 0 0 .114 1.252c.067.226.155.448.264.66.05.108.112.21.176.312.13.202.252.413.423.576a1.42 1.42
  d="M16.002 4.542c-.384.027-.675.35-.675.733v.48c.003.413.11.818.31 1.174.066.13.154.252.227.38.145.27.26.553.345.844.038.14.07.283.08.43a4.665 4.665 0 0 1-.408 2.092c-.58 1.313-1.67 2.358-2.954 3.002-.417.206-.864.37-1.323.487-.16.044-.33.078-.494.105a7.562 7.562 0 0 1-.59.061 4.396 4.396 0 0 0-.734.104c-.327.064-.53.364-.465.693.066.33.417.547.745.484.11-.022.223-.026.335-.026.11-.001.22-.005.33-.02.307-.04.611-.111.902-.21.357-.125.703-.276 1.033-.456 1.58-.854 2.844-2.312 3.307-4.082.056-.195.112-.394.151-.596.03-.154.043-.313.052-.47.013-.16.02-.32.017-.48l.013.002v-.098a5.687 5.687 0 0 0-.072-.805 5.897 5.897 0 0 0-.196-.802c-.37-.133-.114-.24-.138-.38a5.644 5.644 0 0 1-.124-.51 2.546 2.546 0 0 1-.033-.618c.013-.147.05-.29.11-.422a.46.46 0 0 0 .025-.177v-.457c0-.366-.283-.733-.692-.733-.02 0-.034-.005-.052-.005zM15.958 24.282a.904.904 0 0 0-.725.925v.45c0 .324.228.596.525.703.295.18.594.33.898.466.26.114.535.199.815.255a6.2 6.2 0 0 0 1.152.098 5.75 5.75 0 0 0 1.19-.134 6.056 6.056 0 0 0 .839-.284c.268-.118.525-.258.774-.41.118-.076.25-.123.345-.232a.762.762 0 0 0 .238-.533v-.506a.835.835 0 0 0-.817-.798.655.655 0 0 0-.162.014 6.302 6.302 0 0 1-.57.107c-.23.033-.463.047-.696.053a6.492 6.492 0 0 1-1.32-.133 5.57 5.57 0 0 1-.873-.27 5.913 5.913 0 0 1-.8-.38c-.1-.057-.21-.125-.333-.137a.521.521 0 0 0-.08-.004zm-5.728-16.998a.75.75 0 0 0-.442.15 30.535 30.535 0 0 0-1.05.818c-.31.255-.604.525-.875.822-.123.132-.22.291-.324.44a1.311 1.311 0 0 0-.172.426 2.227 2.227 0 0 0 .022 1.002c.048.2.13.388.227.563.146.27.338.507.536.727.304.346.665.634 1.017.932.142.12.273.258.43.348.272.153.566.273.866.375.298.1.602.183.91.237.087.015.177.015.266.023.353.03.708.049 1.062.039.348-.01.696-.048 1.04-.111.081-.015.167-.33.248-.053.3-.07.6-.15.892-.254.144-.05.283-.11.428-.162.012-.013.01-.033.022-.045 0-.33.025-.134.04-.147a6.601 6.601 0 0 0 .958-.568c.266-.194.517-.407.746-.64.203-.207.397-.424.563-.66a3.3 3.3 0 0 0 .394-.702c.051-.13.095-.263.117-.401a1.373 1.373 0 0 0-.071-.673 1.086 1.086 0 0 0-.32-.425 1.946 1.946 0 0 0-.35-.232 2.338 2.338 0 0 0-.403-.179 1.213 1.213 0 0 0-.547-.05c-.345.066-.641.273-.953.429a5.003 5.003 0 0 1-1.11.425 4.588 4.588 0 0 1-1.223.159 7.047 7.047 0 0 1-1.16-.124 6.476 6.476 0 0 1-1.041-.3 6.826 6.826 0 0 1-.851-.4c-.115-.062-.242-.147-.382-.147zM24.448 8.697a1.113 1.113 0 0 0-.306.049 3.925 3.925 0 0 0-.832.344 5.368 5.368 0 0 0-.871.534 7.711 7.711 0 0 0-.765.6c-.105.09-.2.192-.293.292a1.853 1.853 0 0 0-.367.497c-.086.171-.151.35-.188.537-.06.314-.049.639-.004.955.026.209.071.414.135.61.045.178.126.345.201.512.15.32.336.617.541.898.09.127.195.241.296.358.293.33.632.615.982.88.15.114.31.22.473.312.14.078.278.16.427.218.241.094.492.164.746.211.297.054.598.087.9.08.282-.009.564-.042.842-.098.144-.025.283-.063.425-.098a7.186 7.186 0 0 0 1.292-.493c.363-.184.718-.39 1.035-.646.166-.136.343-.272.477-.441.126-.16.224-.34.337-.514.081-.126.138-.266.196-.401.027-.063.066-.123.084-.192a6.475 6.475 0 0 0 .153-.764c.022-.18.032-.36.042-.543a5.9 5.9 0 0 0-.078-1.089 4.747 4.747 0 0 0-.353-1.115 1.797 1.797 0 0 0-.193-.348 1.64 1.64 0 0 0-.358-.352 1.646 1.646 0 0 0-.5-.187 1.847 1.847 0 0 0-.54.015.673.673 0 0 0-.246.085 6.5 6.5 0 0 0-.375.225 7.452 7.452 0 0 1-.95.459 6.694 6.694 0 0 1-1.045.326 6.495 6.495 0 0 1-2.335.022 6.568 6.568 0 0 1-.991-.232 6.361 6.361 0 0 1-.862-.332c-.062-.03-.128-.053-.193-.078a1.322 1.322 0 0 0-.316-.067.85.85 0 0 0-.103-.005zm-13.432 6.77a.75.75 0 0 0-.708.752.75.75 0 0 0 .748.749.75.75 0 0 0 .752-.749.75.75 0 0 0-.752-.752.75.75 0 0 0-.04 0zm19.332.092a.75.75 0 0 0-.04 0 .75.75 0 0 0-.708.752.75.75 0 0 0 .748.749.75.75 0 0 0 .752-.749.75.75 0 0 0-.752-.752zM8.518 20.488c-.41.022-.718.382-.687.789.023.256.05.511.084.767.013.1.023.204.049.298.108.406.234.809.386 1.2.03.085.071.165.105.249.15.354.32.704.51 1.04.042.74.088.146.133.22.193.319.402.626.628.92.05.064.101.127.152.189.243.302.502.592.773.867.7.071.133.15.205.22.294.295.602.573.924.833.066.054.134.104.202.155.34.265.692.514 1.056.74.073.047.147.09.221.135.385.226.78.432 1.186.612.08.036.162.065.243.1.439.19.887.354 1.344.487.092.027.185.043.277.066.47.144.948.258 1.434.337.098.017.195.036.293.049.512.07 1.028.11 1.546.11.515 0 1.028-.04 1.537-.11.102-.013.203-.033.305-.05.483-.08.962-.192 1.432-.336.097-.027.192-.043.289-.071.459-.135.91-.299 1.35-.49.08-.034.16-.062.24-.099.407-.18.805-.388 1.19-.613.074-.044.148-.087.22-.134.366-.226.72-.477 1.059-.743.068-.05.135-.1.201-.153.323-.26.632-.539.926-.834.071-.071.133-.15.203-.22.273-.278.534-.568.778-.87.05-.061.1-.122.148-.185.228-.296.438-.603.633-.924.042-.072.088-.143.128-.216.193-.337.365-.687.514-1.043.036-.084.077-.163.107-.248.153-.392.28-.797.389-1.205.024-.088.034-.18.046-.27.037-.259.064-.52.087-.782.032-.407-.276-.77-.687-.789a.75.75 0 0 0-.05 0 .75.75 0 0 0-.707.75.75.75 0 0 0 .04.234c-.015.173-.032.345-.06.516a6.647 6.647 0 0 1-.134.654 7.344 7.344 0 0 1-.34.991c-.12.282-.258.555-.412.82-.155.262-.326.514-.513.755a7.47 7.47 0 0 1-.61.703 7.307 7.307 0 0 1-.713.635c-.25.198-.513.379-.785.543a7.275 7.275 0 0 1-.865.438c-.294.126-.599.23-.908.315-.307.084-.622.148-.94.188-.319.04-.644.066-.969.066-.326 0-.651-.026-.97-.066a7.235 7.235 0 0 1-.942-.188 7.316 7.316 0 0 1-.91-.316 7.128 7.128 0 0 1-.867-.438c-.272-.165-.534-.346-.785-.544a7.308 7.308 0 0 1-.713-.635 7.47 7.47 0 0 1-.612-.704c-.188-.242-.36-.494-.514-.757a7.347 7.347 0 0 1-.412-.822 7.31 7.31 0 0 1-.342-.992 6.654 6.654 0 0 1-.135-.657c-.028-.17-.044-.342-.058-.516a.75.75 0 0 0 .04-.233.75.75 0 0 0-.752-.75.75.75 0 0 0-.046 0z"/>
</svg> 