<svg xmlns="http://www.w3.org/2000/svg" viewBox="0 0 32 32">
  <path fill="#E25A1C" d="M16.7,7.2l-2.2,2.2c4.1,0.5,7.1,3.3,8.8,6.5c-2-2-5.1-3.8-8.4-3.7l2.1,2.1c2.7,0.4,4.7,1.9,6.1,3.6C20.2,13.8,15.9,11.1,10,11l7.4-3.7H16.7z M23.5,8.6l-7.1,3.6C14,13.8,12.5,15.5,11,17C9.1,19,6.3,20.9,4.6,24c-0.5-1.8-0.6-3.2,0.4-5.5c1.1-2.4,2.9-4.2,5.1-5.7l-3.3,0.3C7.1,15.5,5.1,17.4,4.1,20c-0.4-1.8-0.3-5.2,2.6-8.6c2.8-3.2,6.9-4.7,10.9-5.2l-7.4,0.6C11.7,3.8,14.9,2,22.1,2c0.8,0,1.3,0.1,1.3,0.1s-3.1,1.8-5.3,5.3C19.5,7.3,21.3,7.7,23.5,8.6z"/>
</svg> 