<svg xmlns="http://www.w3.org/2000/svg" viewBox="0 0 32 32">
  <path fill="#FF6F00" d="M26.8,13.2L26.8,13.2L26.8,13.2z M16,26.2L16,26.2c-0.3,0-0.5-0.1-0.7-0.3l-8.2-8.3c-0.4-0.4-0.4-1,0-1.4l5.9-5.9c0.4-0.4,1-0.4,1.4,0l2.3,2.3c0.4,0.4,0.4,1,0,1.4c-0.4,0.4-1,0.4-1.4,0l-1.6-1.6l-4.5,4.5l6.8,6.9l13-13.1L16,4.7L9.8,10.9l1.4,1.4c0.4,0.4,0.4,1,0,1.4c-0.4,0.4-1,0.4-1.4,0L8,11.9c-0.4-0.4-0.4-1,0-1.4L16,2.5c0.4-0.4,1-0.4,1.4,0l13.1,13.1c0.4,0.4,0.4,1,0,1.4L17.4,30.1C17.2,30.3,17,30.4,16.7,30.4L16,26.2z"/>
</svg> 